<svg width="32" height="32" viewBox="0 0 32 32" fill="none" xmlns="http://www.w3.org/2000/svg">
  <!-- Rounded square background -->
  <rect width="32" height="32" rx="6" fill="#00D4AA"/>
  
  <!-- Shield icon (scaled down to 75% size, centered) -->
  <path d="M24 17c0 5-3.5 7.5-7.66 8.95a1 1 0 0 1-.67-.01C11.5 24.33 8 21.83 8 17V10a1 1 0 0 1 1-1c2 0 4.5-1.2 6.24-2.72a1.17 1.17 0 0 1 1.52 0C18.51 7.81 21 9 23 9a1 1 0 0 1 1 1z" 
        stroke="#0A2540" 
        stroke-width="1.5" 
        stroke-linecap="round" 
        stroke-linejoin="round" 
        fill="none"/>
</svg>
